<svg xmlns="http://www.w3.org/2000/svg" width="127.29" height="127.23" viewBox="0 0 127.29 127.23">
  <g id="_01" data-name="01" transform="translate(-7.2 -7.25)">
    <path id="Trazado_1" data-name="Trazado 1" d="M22.1,53.9V45.42a36.05,36.05,0,1,1,72.1,0V56Z" fill="#96a2c3"/>
    <circle id="Elipse_1" data-name="Elipse 1" cx="8.48" cy="8.48" r="8.48" transform="translate(77.23 47.54)" fill="#f6e8db"/>
    <circle id="Elipse_2" data-name="Elipse 2" cx="8.48" cy="8.48" r="8.48" transform="translate(22.1 47.54)" fill="#f6e8db"/>
    <path id="Trazado_2" data-name="Trazado 2" d="M30.58,45.42H49.66c9.37,0,17-8.55,17-19.09A19.09,19.09,0,0,1,85.71,45.42V53.9a27.567,27.567,0,0,1-55.135,0Z" fill="#f6e8db"/>
    <path id="Trazado_3" data-name="Trazado 3" d="M98.44,90v42.41H17.85V90a8.49,8.49,0,0,1,8.49-8.48H90A8.48,8.48,0,0,1,98.44,90Z" fill="#d1cfda"/>
    <path id="Trazado_4" data-name="Trazado 4" d="M98.44,94.19h29.69v38.17H98.44Z" fill="#e4cbb7"/>
    <path id="Trazado_5" data-name="Trazado 5" d="M132.37,123.88v4.24a4.24,4.24,0,0,1-4.24,4.24h-8.49V119.64h8.49A4.24,4.24,0,0,1,132.37,123.88Z" fill="#f6e8db"/>
    <path id="Trazado_6" data-name="Trazado 6" d="M30.58,121.76a2.13,2.13,0,0,1-1.9-1.17L7.48,78.18a2.12,2.12,0,1,1,3.77-1.93h0l21.2,42.41a2.13,2.13,0,0,1-.94,2.85,2.24,2.24,0,0,1-1,.22Z" fill="#c3c6c7"/>
    <path id="Trazado_7" data-name="Trazado 7" d="M68.75,94.19H98.44v38.17H68.75Z" fill="#e4cbb7"/>
    <path id="Trazado_8" data-name="Trazado 8" d="M26.34,128.12v-4.24a4.24,4.24,0,0,1,4.24-4.24h8.48v12.72H30.58A4.24,4.24,0,0,1,26.34,128.12Z" fill="#f6e8db"/>
    <path id="Trazado_9" data-name="Trazado 9" d="M60.27,81.47l-17,12.72V81.47Z" fill="#96a2c3"/>
    <path id="Trazado_10" data-name="Trazado 10" d="M56,81.47,73,94.19V81.47Z" fill="#96a2c3"/>
    <path id="Trazado_11" data-name="Trazado 11" d="M109,104.8h8.48a2.13,2.13,0,0,0,0-4.25H109a2.13,2.13,0,0,0,0,4.25Z" fill="#8791ae"/>
    <path id="Trazado_12" data-name="Trazado 12" d="M119.64,109H107.19a2.12,2.12,0,1,0,0,4.24h12.45a2.12,2.12,0,0,0,0-4.24Z" fill="#8791ae"/>
    <circle id="Elipse_3" data-name="Elipse 3" cx="8.48" cy="8.48" r="8.48" transform="translate(39.06 45.42)" fill="#96a2c3"/>
    <circle id="Elipse_4" data-name="Elipse 4" cx="8.48" cy="8.48" r="8.48" transform="translate(60.27 45.42)" fill="#96a2c3"/>
    <path id="Trazado_13" data-name="Trazado 13" d="M130.25,117.88V94.19a2.12,2.12,0,0,0-2.12-2.12H100.56V90A10.62,10.62,0,0,0,90,79.35H73.42A29.92,29.92,0,0,0,85,66.62h.74A10.61,10.61,0,0,0,96.32,56V45.42a38.17,38.17,0,0,0-76.34,0V56a10.6,10.6,0,0,0,10.6,10.6h.75A29.9,29.9,0,0,0,42.87,79.35H26.34a10.609,10.609,0,0,0-10,7.067L11.27,76.28h0a2.12,2.12,0,1,0-3.79,1.89h0l8.26,16.52v37.67a2.11,2.11,0,0,0,2.12,2.12H128.13a6.37,6.37,0,0,0,6.36-6.36v-4.24a6.38,6.38,0,0,0-4.24-6ZM96.32,90v2.12H75.11V83.59H90A6.37,6.37,0,0,1,96.32,90ZM66.63,94.19v36.05H60.27V87.3l7.07,5.31a2.12,2.12,0,0,0-.71,1.58ZM45.42,83.59h8.49L45.42,90Zm17,0H70.9V90Zm24.2-21.27a29.62,29.62,0,0,0,1.22-8.42V50a6.37,6.37,0,0,1-1.22,12.3ZM58.15,11.49A34,34,0,0,1,92.08,45.42v2.13a10.67,10.67,0,0,0-4.24-1.92v-.21A21.24,21.24,0,0,0,66.63,24.21a2.12,2.12,0,0,0-2.12,2.12c0,9.36-6.66,17-14.85,17H30.58a2.12,2.12,0,0,0-2.12,2.12v.21a10.54,10.54,0,0,0-4.24,1.92V45.42A34,34,0,0,1,58.15,11.49Zm-21,40.29H32.7V47.54h6.37A10.54,10.54,0,0,0,37.15,51.78Zm10.39-4.24a6.36,6.36,0,1,1-6.36,6.36A6.36,6.36,0,0,1,47.54,47.54ZM24.22,56a6.38,6.38,0,0,1,4.24-6v3.9a30,30,0,0,0,1.21,8.42A6.36,6.36,0,0,1,24.22,56Zm8.57,0h4.36a10.61,10.61,0,1,0,18.09-9.4c7.19-2.45,12.59-9.5,13.4-18a17,17,0,0,1,15,16.84V51.8h-4.5a10.6,10.6,0,1,0,0,4.24h4.37a25.45,25.45,0,0,1-50.72,0Zm42.32-2.1a6.36,6.36,0,1,1-6.36-6.36A6.36,6.36,0,0,1,75.11,53.9ZM20,90a6.36,6.36,0,0,1,6.36-6.36H41.18v10.6a2.12,2.12,0,0,0,3.39,1.7L56,87.3v42.94H41.18v-10.6a2.12,2.12,0,0,0-2.12-2.12H31.89L20,93.69Zm0,13.23,7.56,15.12a6.34,6.34,0,0,0-3.32,5.58v4.24a6.34,6.34,0,0,0,.36,2.12H20Zm10.6,27.06a2.12,2.12,0,0,1-2.12-2.12v-4.24a2.12,2.12,0,0,1,2.12-2.12h6.36v8.48Zm40.29,0V96.31H96.32v33.93Zm46.65-10.6v10.6h-17V96.31H126v21.21h-6.37a2.12,2.12,0,0,0-2.11,2.12Zm12.73,8.48a2.12,2.12,0,0,1-2.12,2.12h-6.36v-8.48h6.36a2.12,2.12,0,0,1,2.12,2.12Z" fill="#8791ae"/>
  </g>
</svg>
