<?xml version="1.0" encoding="utf-8"?>
<!-- Generator: Adobe Illustrator 25.4.1, SVG Export Plug-In . SVG Version: 6.00 Build 0)  -->
<svg version="1.1" id="Capa_1" xmlns="http://www.w3.org/2000/svg" xmlns:xlink="http://www.w3.org/1999/xlink" x="0px" y="0px"
	 viewBox="0 0 127.6 127.6" style="enable-background:new 0 0 127.6 127.6;" xml:space="preserve">
<style type="text/css">
	.st0{fill:#F6E8DB;}
	.st1{fill:#B9AEA4;}
	.st2{fill:#D1CFDA;}
	.st3{fill:#96A2C3;}
	.st4{fill:#CECECC;}
	.st5{fill:#D5D5D3;}
	.st6{fill:#8791AE;}
</style>
<g id="Filled_outline" transform="translate(-7.08 -7.08)">
	<path id="Trazado_14" class="st0" d="M111.3,70.9v12.8H85.8V70.9c2.3,0,4.2-1.9,4.2-4.2l0,0v-4.3h17v4.2
		C107,69,108.9,70.9,111.3,70.9C111.2,70.9,111.2,70.9,111.3,70.9L111.3,70.9z"/>
	<path id="Trazado_15" class="st1" d="M107.3,68.3c-5.6,3.1-12.3,3.5-18.2,0.8c0.5-0.7,0.8-1.6,0.8-2.5v-4.2h17v4.2
		C107,67.2,107.1,67.7,107.3,68.3z"/>
	<path id="Trazado_16" class="st2" d="M67.7,78.9l-5.3,13.2h17V124h38.3V92.1h14.9v-8.5c0-7-5.7-12.8-12.8-12.8h-8.5l-2.4,3.2
		c-4.4,5.9-12.8,7.1-18.6,2.7c-1.6-1.2-3-2.8-3.9-4.7l-0.6-1.1h-6.2C74.3,70.9,69.6,74.1,67.7,78.9z"/>
	<path id="Trazado_17" class="st0" d="M66.6,124h-17l12.8-31.9h17L66.6,124z"/>
	<path id="Trazado_18" class="st0" d="M117.6,49.6h-4.2V36.8h4.2c3.5,0,6.4,2.9,6.4,6.4S121.2,49.6,117.6,49.6z"/>
	<path id="Trazado_19" class="st0" d="M77.2,36.8h4.3v12.8h-4.3c-3.5,0-6.4-2.9-6.4-6.4S73.7,36.8,77.2,36.8z"/>
	<path id="Trazado_20" class="st0" d="M90,19.8h14.9c7,0,12.8,5.7,12.8,12.8v13.8c0,11.2-9,20.2-20.2,20.2c-11.2,0-20.2-9-20.2-20.2
		V32.6C77.2,25.6,83,19.8,90,19.8z"/>
	<path id="Trazado_21" class="st3" d="M117.6,36.8l-4.6-1.6c-4.8-1.6-8.1-6.1-8.1-11.2V13.5c7,0,12.8,5.7,12.8,12.8l0,0L117.6,36.8z
		"/>
	<path id="Trazado_22" class="st3" d="M104.9,13.5v10.6c-4.1,2.8-8.7,4.9-13.4,6.3c-4.8,1.4-9.7,2.2-14.7,2.2H73v-6.4
		c0-9.4,7.6-17,17-17h8C100.9,9.2,103.6,10.9,104.9,13.5z"/>
	<path id="Trazado_23" class="st2" d="M9.2,124h123.3v8.5H9.2V124z"/>
	<path id="Rectángulo_1" class="st0" d="M15.6,56h59.5c3.5,0,6.4,2.9,6.4,6.4v38.3c0,3.5-2.9,6.4-6.4,6.4H15.6
		c-3.5,0-6.4-2.9-6.4-6.4V62.4C9.2,58.8,12.1,56,15.6,56z"/>
	<path id="Trazado_24" class="st4" d="M45.3,107h8.5l-2.1-12.8h-6.4V107z"/>
	<path id="Trazado_25" class="st5" d="M32.6,115.5h25.5v8.5H32.6V115.5z"/>
	<path id="Trazado_26" class="st3" d="M45.3,124H24.1l12.8-29.8h14.9L45.3,124z"/>
	<path id="Trazado_27" class="st5" d="M66.6,115.5h25.5v8.5H66.6V115.5z"/>
	<path id="Trazado_28" class="st0" d="M117.6,92.1v17H90c-4.7,0-8.5,3.8-8.5,8.5c0,0,0,0,0,0v4.2c0,1.2,1,2.1,2.1,2.1h34
		c8.2,0,14.9-6.7,14.9-14.9v-17L117.6,92.1z"/>
	<path id="Trazado_29" class="st6" d="M119.8,68.7h-8.5c-1.2,0-2.1-0.9-2.1-2.1l0,0v-1.2c5-3.1,8.6-8.1,10-13.8
		c4.6-0.8,7.7-5.3,6.8-9.9c-0.6-3.2-3-5.9-6.2-6.7v-8.8c0-7.7-5.9-14.2-13.6-14.8c-1.8-2.7-4.9-4.3-8.1-4.3h-8
		c-10.6,0-19.1,8.6-19.1,19.1v6.4c0,1.2,0.9,2.1,2.1,2.1c0,0,0,0,0,0h2.1V35c-4.5,1.2-7.3,5.8-6.1,10.3c0.8,3.2,3.5,5.7,6.7,6.3
		l0.2,0.7l4.1-1.1c-0.4-1.5-0.6-3.1-0.6-4.8V34.7c8.4-0.4,16.6-2.8,23.8-7c1.2,4.5,4.6,8.2,9.1,9.7l3.2,1.1v8c0,10-8.1,18.1-18,18.1
		c-3.7,0-7.4-1.2-10.5-3.3l-2.5,3.5c1.1,0.8,2.2,1.4,3.3,2l0,0c0,1.2-0.9,2.1-2.1,2.1c0,0,0,0,0,0h-2.1v-6.4c0-4.7-3.8-8.5-8.5-8.5
		H15.6c-4.7,0-8.5,3.8-8.5,8.5v6.4h4.3v-6.4c0-2.3,1.9-4.2,4.2-4.2h59.5c2.3,0,4.2,1.9,4.2,4.2v38.3c0,2.3-1.9,4.2-4.2,4.2H51.6
		l2.2-10.2c0.2-1.1-0.5-2.3-1.6-2.5c-0.1,0-0.3,0-0.5,0H36.8c-0.9,0-1.7,0.5-2,1.3L30,104.9H15.6c-2.3,0-4.2-1.9-4.2-4.2V73H7.1
		v27.6c0,4.7,3.8,8.5,8.5,8.5h12.6l-5.5,12.8H9.2c-1.2,0-2.1,0.9-2.1,2.1v8.5c0,1.2,1,2.1,2.1,2.1c0,0,0,0,0,0h123.3
		c1.2,0,2.1-1,2.1-2.1c0,0,0,0,0,0V124c0-1.2-1-2.1-2.1-2.1l0,0h-3.6c3.7-3.2,5.8-7.9,5.8-12.8V107h-4.3v2.1c0,7-5.7,12.7-12.8,12.8
		h-34v-4.2c0-3.5,2.9-6.3,6.4-6.4h27.6c1.2,0,2.1-1,2.1-2.1V94.2h10.6v8.5h4.2V83.6C134.6,75.4,128,68.8,119.8,68.7z M119.8,46.4
		v-6.9c2,1.2,2.7,3.8,1.6,5.8c-0.2,0.3-0.4,0.6-0.7,0.9c-0.3,0.3-0.6,0.5-0.9,0.7L119.8,46.4L119.8,46.4z M73,43.2
		c0-1.1,0.5-2.2,1.2-3c0.3-0.3,0.6-0.5,0.9-0.7v7.4C73.8,46.2,73,44.8,73,43.2z M102.8,22.9c-7.8,4.9-16.8,7.5-26,7.5h-1.7v-2.4
		c18.2-2.4,24.6-8.6,24.9-8.9l-3-3c-1.6,1.3-3.4,2.4-5.3,3.2c-5.2,2.2-10.8,3.7-16.4,4.4c0.2-1.4,0.6-2.7,1.2-4
		c8-0.2,12.1-2.2,12.3-2.3l-1.9-3.8c-2.3,0.9-4.6,1.5-7.1,1.7c2.8-2.6,6.4-4,10.1-4h8c1.9,0,3.8,1,4.8,2.7L102.8,22.9z M113.6,33.3
		c-4-1.3-6.6-5-6.6-9.2v-8.3c4.9,1,8.5,5.4,8.5,10.4v7.7L113.6,33.3z M92,68.1c4.3,1.1,8.8,0.9,13-0.6c0.2,1.4,0.8,2.7,1.8,3.7
		c0.3,0.3,0.6,0.6,1,0.8l-0.6,0.8c-3.7,4.9-10.7,6-15.6,2.3c-1.1-0.8-2-1.8-2.7-2.9C90.5,71.3,91.6,69.8,92,68.1z M79.4,117.6v4.2
		H68.7v-4.2H79.4z M74.9,109.1h0.3c0.7,0,1.4-0.1,2.1-0.3v4.5h-4.1L74.9,109.1z M57.9,109.1h12.4l-1.7,4.3h-2
		c-1.2,0-2.1,0.9-2.1,2.1c0,0,0,0,0,0v6.4h-4.2v-6.4c0-1.2-1-2.1-2.1-2.1h-2L57.9,109.1z M50.7,109.1h2.5l-1.7,4.3h-1.8L50.7,109.1z
		 M56,117.6v4.2h-8l0.9-4.2H56z M38.2,96.4h10.8l-5.5,25.5H27.3L38.2,96.4z M130.4,126.1v4.3H11.3v-4.3L130.4,126.1z M130.4,90
		h-10.6v-6.4h-4.3V107H90c-3.3,0-6.5,1.6-8.5,4.3v-5c1.4-1.6,2.1-3.6,2.1-5.6V73h0.8c3.8,7.6,13.1,10.7,20.7,6.9
		c2.1-1.1,4-2.6,5.4-4.5l1.7-2.3h7.4c5.9,0,10.6,4.8,10.6,10.6V90z M106.8,83.8l1.9,3.8c-7,3.4-15.2,3.1-21.9-0.8l2.1-3.7
		C94.4,86.4,101.1,86.6,106.8,83.8L106.8,83.8z M36.8,68.7h-8.5v-4.2h8.5V68.7z M49.6,64.5v4.2h-8.5v-4.2H49.6z M62.3,64.5v4.2h-8.5
		v-4.2H62.3z M75.1,68.7h-8.5v-4.2h8.5L75.1,68.7z M24.1,64.5v4.2h-8.5v-4.2H24.1z"/>
</g>
</svg>
