<svg xmlns="http://www.w3.org/2000/svg" width="122.3" height="122.214" viewBox="0 0 122.3 122.214">
  <g id="_04" transform="translate(-9.7 -9.786)">
    <path id="Trazado_37" d="M70.9,31.2a9.5,9.5,0,0,0,9.5-9.5,12.253,12.253,0,0,0-.2-1.9,9.551,9.551,0,0,0-18.7,0,12.253,12.253,0,0,0-.2,1.9A9.518,9.518,0,0,0,70.9,31.2Z" fill="#96a2c3" fill-rule="evenodd"/>
    <path id="Trazado_38" d="M65.1,29.3a9.472,9.472,0,0,1-3.8-7.6,12.252,12.252,0,0,1,.2-1.9h-5a4.8,4.8,0,0,0-4.8,4.8v4.8Z" fill="#f6e8db" fill-rule="evenodd"/>
    <path id="Trazado_39" d="M80.4,21.7a9.472,9.472,0,0,1-3.8,7.6H90V24.5a4.8,4.8,0,0,0-4.8-4.8h-5A7.144,7.144,0,0,1,80.4,21.7Z" fill="#f6e8db" fill-rule="evenodd"/>
    <path id="Trazado_40" d="M47.7,45.1a6.2,6.2,0,0,0-12.4,0h0v3.1a6.2,6.2,0,0,0,12.4,0Z" fill="#f6e8db" fill-rule="evenodd"/>
    <path id="Trazado_41" d="M46.1,52.3a6.165,6.165,0,0,1-8.7.5c-.2-.2-.4-.3-.5-.5a10.817,10.817,0,0,0-6.2,9.8v3.1H52.3V62A10.781,10.781,0,0,0,46.1,52.3Z" fill="#d1cfda" fill-rule="evenodd"/>
    <path id="Trazado_42" d="M47.7,80.9a6.2,6.2,0,0,0-12.4,0V84a6.2,6.2,0,0,0,12.4,0Z" fill="#f6e8db" fill-rule="evenodd"/>
    <path id="Trazado_43" d="M46.1,88.1a6.165,6.165,0,0,1-8.7.5c-.2-.2-.4-.3-.5-.5a10.817,10.817,0,0,0-6.2,9.8V101H52.3V97.9A10.817,10.817,0,0,0,46.1,88.1Z" fill="#96a2c3" fill-rule="evenodd"/>
    <path id="Trazado_44" d="M106.4,45.1a6.231,6.231,0,0,0-6.2-6.2A6.167,6.167,0,0,0,94,45.1h0v3.1a6.2,6.2,0,1,0,12.4,0V45.1Z" fill="#f6e8db" fill-rule="evenodd"/>
    <path id="Trazado_45" d="M104.8,52.3a6.165,6.165,0,0,1-8.7.5c-.2-.2-.4-.3-.5-.5a10.817,10.817,0,0,0-6.2,9.8v3.1H111V62a10.781,10.781,0,0,0-6.2-9.7Z" fill="#e4cbb7" fill-rule="evenodd"/>
    <path id="Trazado_46" d="M106.4,80.9a6.231,6.231,0,0,0-6.2-6.2A6.167,6.167,0,0,0,94,80.9V84a6.2,6.2,0,1,0,12.4,0V80.9Z" fill="#f6e8db" fill-rule="evenodd"/>
    <path id="Trazado_47" d="M104.8,88.1a6.165,6.165,0,0,1-8.7.5c-.2-.2-.4-.3-.5-.5a10.817,10.817,0,0,0-6.2,9.8V101H111V97.9A10.817,10.817,0,0,0,104.8,88.1Z" fill="#f6e8db" fill-rule="evenodd"/>
    <path id="Trazado_48" d="M70.9,100.9H12.2v4.8a4.8,4.8,0,0,0,4.8,4.8h94V101C111,100.9,70.9,100.9,70.9,100.9Z" fill="#96a2c3" fill-rule="evenodd"/>
    <path id="Trazado_49" d="M111,100.9v9.5h13.8a4.8,4.8,0,0,0,4.8-4.8v-4.8C129.6,100.9,111,100.9,111,100.9Z" fill="#f6e8db" fill-rule="evenodd"/>
    <path id="Trazado_50" d="M52.3,65.1H70.9V31.2a9.523,9.523,0,0,1-5.7-1.9H16.9a4.8,4.8,0,0,0-4.8,4.8v31H30.6V62a10.817,10.817,0,0,1,6.2-9.8,6.2,6.2,0,0,1-1.6-4.1V45a6.2,6.2,0,1,1,12.4,0h0v3.1A6.2,6.2,0,0,1,46,52.2,10.817,10.817,0,0,1,52.2,62C52.3,62,52.3,65.1,52.3,65.1Z" fill="#f6e8db" fill-rule="evenodd"/>
    <path id="Trazado_51" d="M70.9,65.1H12.2v35.8H30.7V97.8A10.817,10.817,0,0,1,36.9,88a6.2,6.2,0,0,1-1.6-4.1V80.8a6.2,6.2,0,0,1,12.4,0V84a6.2,6.2,0,0,1-1.6,4.1,10.817,10.817,0,0,1,6.2,9.8V101H70.9V65.1Z" fill="#e4cbb7" fill-rule="evenodd"/>
    <path id="Trazado_52" d="M70.9,31.2V65.1H89.4V62a10.817,10.817,0,0,1,6.2-9.8A6.2,6.2,0,0,1,94,48.1V45a6.2,6.2,0,1,1,12.4,0h0v3.1a6.2,6.2,0,0,1-1.6,4.1A10.817,10.817,0,0,1,111,62v3.1h18.6v-31a4.8,4.8,0,0,0-4.8-4.8H76.6a8.72,8.72,0,0,1-5.7,1.9Z" fill="#96a2c3" fill-rule="evenodd"/>
    <path id="Trazado_53" d="M89.4,65.1H70.9v35.8H89.4V97.8A10.817,10.817,0,0,1,95.6,88,5.76,5.76,0,0,1,94,84V80.9a6.2,6.2,0,0,1,12.4,0V84a6.2,6.2,0,0,1-1.6,4.1,10.781,10.781,0,0,1,6.2,9.7v3.1h18.6V65.1Z" fill="#d1cfda" fill-rule="evenodd"/>
    <path id="Trazado_54" d="M58.8,110.5H83l4.7,19.1H54Z" fill="#f6e8db" fill-rule="evenodd"/>
    <path id="Trazado_55" d="M124.8,27H92.3V24.6a7.17,7.17,0,0,0-7.2-7.2H82a11.9,11.9,0,0,0-22.2,0H56.6a7.17,7.17,0,0,0-7.2,7.2V27H16.9a7.17,7.17,0,0,0-7.2,7.2v71.6a7.17,7.17,0,0,0,7.2,7.2H55.7l-3.6,14.3H49.3A2.355,2.355,0,1,0,49,132H92.3a2.351,2.351,0,0,0,2.2-2.5,2.289,2.289,0,0,0-2.2-2.2H89.5L86,112.9h38.8a7.17,7.17,0,0,0,7.2-7.2V34.1A7.28,7.28,0,0,0,124.8,27ZM104,84a3.8,3.8,0,1,1-7.6,0V80.9a3.8,3.8,0,1,1,7.6,0Zm-8.7,7a8.591,8.591,0,0,0,9.7,0,8.528,8.528,0,0,1,3.6,6.9v.7H91.8v-.7A8.435,8.435,0,0,1,95.3,91Zm12.8-3.7a9.764,9.764,0,0,0,.7-3.3V80.9a8.6,8.6,0,1,0-17.2,0V84a7.535,7.535,0,0,0,.7,3.3A13.263,13.263,0,0,0,87,97.8v.7H73.2V86.6A2.294,2.294,0,0,0,71,84.1a2.358,2.358,0,0,0-2.5,2.2V98.5H54.7v-.7a13.309,13.309,0,0,0-5.3-10.6,9.283,9.283,0,0,0,.7-3.3V80.8a8.605,8.605,0,0,0-17.2,0V84a7.535,7.535,0,0,0,.7,3.3,13.309,13.309,0,0,0-5.3,10.6v.7H14.5v-31H127.2v31H113.4v-.7a13.029,13.029,0,0,0-5.3-10.6ZM45.3,84a3.8,3.8,0,1,1-7.6,0V80.9a3.8,3.8,0,1,1,7.6,0Zm-8.6,7a8.591,8.591,0,0,0,9.7,0,8.178,8.178,0,0,1,3.5,6.9v.7H33.1v-.7A8.269,8.269,0,0,1,36.7,91Zm8.6-42.9a3.8,3.8,0,0,1-7.6,0h0V45a3.8,3.8,0,0,1,7.6,0Zm-8.6,7a8.591,8.591,0,0,0,9.7,0A8.178,8.178,0,0,1,49.9,62v.7H33.1V62A8.4,8.4,0,0,1,36.7,55.1Zm67.3-7a3.8,3.8,0,0,1-7.6,0h0V45a3.8,3.8,0,0,1,7.6,0Zm-8.6,7a8.591,8.591,0,0,0,9.7,0,8.528,8.528,0,0,1,3.6,6.9v.7H91.8V62A8.4,8.4,0,0,1,95.4,55.1Zm31.8-21V62.8H113.4V62a13.309,13.309,0,0,0-5.3-10.6,9.764,9.764,0,0,0,.7-3.3V45a8.6,8.6,0,1,0-17.2,0v3.1a7.535,7.535,0,0,0,.7,3.3A13.6,13.6,0,0,0,87,62v.7H73.2V33.4a12.3,12.3,0,0,0,4.1-1.7h47.5a2.433,2.433,0,0,1,2.4,2.4ZM87.6,24.6V27h-6a13.058,13.058,0,0,0,1.2-4.8h2.4a2.5,2.5,0,0,1,2.4,2.4ZM78,21.7a7.2,7.2,0,1,1-7.2-7.2A7.17,7.17,0,0,1,78,21.7ZM54.2,27V24.6a2.433,2.433,0,0,1,2.4-2.4H59A10.05,10.05,0,0,0,60.2,27ZM14.5,34.1a2.433,2.433,0,0,1,2.4-2.4H64.4a11.491,11.491,0,0,0,4.1,1.7V62.8H54.7V62a13.309,13.309,0,0,0-5.3-10.6,7.843,7.843,0,0,0,.7-3.3V45a8.605,8.605,0,0,0-17.2,0v3.1a7.535,7.535,0,0,0,.7,3.3A13.309,13.309,0,0,0,28.3,62v.7H14.5Zm0,71.6v-2.4h94.1v4.8H16.9A2.433,2.433,0,0,1,14.5,105.7Zm70.1,21.5H57.1l3.5-14.3H81Zm40.2-19.1H113.4v-4.8h13.8v2.4A2.433,2.433,0,0,1,124.8,108.1Z" fill="#8791ae"/>
    <path id="Trazado_56" d="M70.9,24.1a2.351,2.351,0,0,0,2.2-2.5,2.289,2.289,0,0,0-2.2-2.2h0a2.355,2.355,0,0,0-.3,4.7Z" fill="#8791ae"/>
    <path id="Trazado_57" d="M70.9,73.5a2.4,2.4,0,1,0,2.4,2.4h0A2.433,2.433,0,0,0,70.9,73.5Z" fill="#8791ae"/>
  </g>
</svg>
