<svg xmlns="http://www.w3.org/2000/svg" width="122.5" height="122.99" viewBox="0 0 122.5 122.99">
  <g id="_03" data-name="03" transform="translate(-9.61 -9.39)">
    <path id="Trazado_30" data-name="Trazado 30" d="M34.5,119.38a7.21,7.21,0,0,0,7.21,7.21h62.52a7.21,7.21,0,0,0,7.21-7.21v-7.21H34.5Z" fill="#96a2c3"/>
    <path id="Trazado_31" data-name="Trazado 31" d="M34.5,25.6h76.94v86.57H34.5Z" fill="#e4cbb7"/>
    <path id="Trazado_32" data-name="Trazado 32" d="M104.23,11.17H41.71a7.21,7.21,0,0,0-7.21,7.22V25.6h76.94V18.39a7.21,7.21,0,0,0-7.21-7.22Z" fill="#96a2c3"/>
    <path id="Trazado_33" data-name="Trazado 33" d="M97.5,132.36v-7l-2.31-5.07a20.52,20.52,0,0,1,7.52-25.71V80.43a6.17,6.17,0,0,1,8.74-5.61v-9.3l8.65.78,10.58,28.79-9.14,24.29v13Z" fill="#f6e8db"/>
    <path id="Trazado_34" data-name="Trazado 34" d="M11.41,42.67V91H45.08l.25.51a7.78,7.78,0,0,0,13.92,0l.26-.51H93.17V42.67Z" fill="#f6e8db"/>
    <path id="Trazado_35" data-name="Trazado 35" d="M61.91,35.46a9.62,9.62,0,0,0-9.62,9.62,9.62,9.62,0,0,0-9.62-9.62h-24V83.79H86V35.46Z" fill="#d1cfda"/>
    <path id="Trazado_36" data-name="Trazado 36" d="M65.76,16.58H80.18v3.61H65.76Zm5.41,104.6h3.6v-3.6h-3.6Zm60.49-23.57L124,117.88a10.84,10.84,0,0,0-.68,3.78v10.7h-3.61v-11.2a11.6,11.6,0,0,1,.74-4.08L128,97.24a6.18,6.18,0,0,0,0-4.32l-8.32-22.65a3.83,3.83,0,0,0-3.26-2.49l-3.13-.29v6.27a8,8,0,0,1,3.61,6.67V102.6h-3.61v-22a4.48,4.48,0,0,0-3.5-4.45,4.37,4.37,0,0,0-5.24,4.28V95.59l-.82.53a18.72,18.72,0,0,0-6.85,23.45L99.3,125v7.36H95.69v-4h-54a9,9,0,0,1-9-9V92.81H9.61V40.87h7.21V33.65H32.69V18.39a9,9,0,0,1,9-9h62.52a9,9,0,0,1,9,9V63.87l4.54.41a5.73,5.73,0,0,1,4.9,3.72l9,24.57a7.2,7.2,0,0,1,.01,5.04ZM20.43,72.37H42.67a11.412,11.412,0,0,1,7.822,3.1V45.08a7.83,7.83,0,0,0-7.82-7.82H20.43Zm0,9.62H50.28a7.84,7.84,0,0,0-7.61-6H20.43ZM46.19,89.2l.75,1.51a6,6,0,0,0,10.7,0l.75-1.51h33V44.48H87.76V85.59H16.82V44.48h-3.6V89.2Zm38-16.83V37.26H61.91a7.83,7.83,0,0,0-7.82,7.82V75.47a11.41,11.41,0,0,1,7.82-3.1ZM61.91,76a7.82,7.82,0,0,0-7.6,6H84.15V76Zm31.64,45.09a22.25,22.25,0,0,1-1.89-7.1H36.3v5.41a5.42,5.42,0,0,0,5.41,5.41H95.24ZM109.64,27.4H36.3v6.25h6.37a11.42,11.42,0,0,1,9.62,5.28,11.42,11.42,0,0,1,9.62-5.28H87.76v7.22H95V92.81H60.6a9.58,9.58,0,0,1-16.62,0H36.3v17.55H91.6a22.37,22.37,0,0,1,9.3-16.7V80.43a8,8,0,0,1,8-8h.76V27.4Zm0-9a5.42,5.42,0,0,0-5.41-5.4H41.71a5.42,5.42,0,0,0-5.41,5.42V23.8h73.34ZM45.08,46.88H25.84v3.61H45.08ZM25.84,57.7h12V54.09h-12Zm33.67-7.21H78.74V46.88H59.51Zm0,7.21h12V54.09h-12Z" fill="#8791ae"/>
  </g>
</svg>
